<?xml version="1.0" encoding="utf-8"?>
<!-- Generator: Adobe Illustrator 18.1.0, SVG Export Plug-In . SVG Version: 6.00 Build 0)  -->
<svg version="1.1"
	 id="svg2" xmlns:dc="http://purl.org/dc/elements/1.1/" xmlns:rdf="http://www.w3.org/1999/02/22-rdf-syntax-ns#" xmlns:svg="http://www.w3.org/2000/svg" xmlns:inkscape="http://www.inkscape.org/namespaces/inkscape" xmlns:cc="http://creativecommons.org/ns#"
	 xmlns="http://www.w3.org/2000/svg" xmlns:xlink="http://www.w3.org/1999/xlink" x="0px" y="0px"
	 viewBox="-143 -133.9 411.7 417.9" enable-background="new -143 -133.9 411.7 417.9" xml:space="preserve">
<g id="g10" transform="matrix(1.25,0,0,-1.25,0,417.8625)">
	<g id="g12" transform="scale(0.1,0.1)">
		<g id="g14">
			<g>
				<defs>
					<rect id="SVGID_1_" x="452.5" y="2692.4" width="100" height="100"/>
				</defs>
				<clipPath id="SVGID_2_">
					<use xlink:href="#SVGID_1_"  overflow="visible"/>
				</clipPath>
				<g id="g16" clip-path="url(#SVGID_2_)">
					<path id="path22" inkscape:connector-curvature="0" fill="#EF6518" d="M272.3,2895.5c-1,0.3-2.1,0.9-2.8,1.6
						c-2.4,2.4-2.4,6.3,0,8.7h125.9c2.4-2.4,2.4-6.3,0-8.7c-0.9-0.9-2.1-1.5-3.3-1.7l-22.9-3.7c-7.5-1.4-13.1-7.9-13.1-15.7v-210.3
						c0-18.6,3.4-41.6,8.8-58.6c5.4-16.9,21.1-35.4,40.1-43.3c18.2-7.5,41.5-12.1,66.6-12.1c26.6,0,50.8,5.1,69.5,13.4
						c18.5,8.1,32.8,23.9,38.9,43.2c5.2,16.7,8.3,36.5,8.3,57.5c0,0,0,186.4,0,244.5c0,52.9,26.4,70.4,67.9,70.4
						c41.5,0,74.5,0,74.5,0c2.8-2.7,2.8-7.1,0-9.8c-1-1-2.4-1.7-3.7-1.9l-26-3.5c-15.4-2.7-19.4-8.7-19.4-24.5l-0.2-27.7v-251.5
						c0-16.1-1.5-31.7-4-46.1c-8.4-47-45-84.6-91.8-95.4c-28.2-6.6-60.2-10.2-94.2-10.2c-34,0-66.3,3.8-94.5,10.4
						c-45.3,11-80.8,47.2-90.1,92.6c-3.2,16-5.1,33.6-5.1,51.9l0,211.4c0,7.6-5.5,14-12.7,15.6"/>
				</g>
			</g>
		</g>
	</g>
</g>
</svg>
